<?xml version="1.0" encoding="utf-8"?>
<!-- Generator: Adobe Illustrator 18.0.0, SVG Export Plug-In . SVG Version: 6.00 Build 0)  -->
<!DOCTYPE svg PUBLIC "-//W3C//DTD SVG 1.1//EN" "http://www.w3.org/Graphics/SVG/1.1/DTD/svg11.dtd">
<svg version="1.1" id="Layer_1" xmlns="http://www.w3.org/2000/svg" xmlns:xlink="http://www.w3.org/1999/xlink" x="0px" y="0px"
	 viewBox="0 0 216 216" enable-background="new 0 0 216 216" xml:space="preserve">
<g>
	<path fill="#E6E6E6" d="M191.3,160c0,4.2-37,7.6-82.7,7.6c-45.7,0-82.7-3.4-82.7-7.6c0-4.2,37-7.6,82.7-7.6
		C154.2,152.4,191.3,155.8,191.3,160z"/>
	<g>
		<g>
			<g>
				<g>
					<path fill="#83BC45" d="M66.3,70.3v-0.5V58H78h61h11.8v11.8v0.5c0,22.8-19.1,41-42.3,41.1l0,0v-3.9v-3.9
						c19.1,0,34.4-15,34.4-33.2l0,0v-0.5v-3.9h-3.9H78h-3.9v3.9v0.5c0,18.2,15.4,33.2,34.4,33.2l0,0v3.9v3.9
						C85.3,111.4,66.3,93.1,66.3,70.3L66.3,70.3z"/>
				</g>
			</g>
			<rect x="100.5" y="83.9" fill="#83BC45" width="16" height="83.7"/>
			<path fill="#6A856A" d="M136.3,35.8c0-14.7-12.4-26.6-27.7-26.6c-15.3,0-27.7,11.9-27.7,26.6c0,12.8,0,7.1,0,9.6h55.4V35.8z"/>
			<path fill="#6A856A" d="M80.8,68.8c0,14.7,12.4,26.6,27.7,26.6c15.3,0,27.7-11.9,27.7-26.6c0-12.8,0-16.7,0-19.2H80.8V68.8z"/>
		</g>
		<g>
			<path fill="#83BC45" d="M171.7,150c-19.2,19.2-52.3,17.1-52.3,17.1s-2.1-33.2,17.1-52.3c19.2-19.2,52.3-17.1,52.3-17.1
				S190.9,130.8,171.7,150z"/>
			<path fill="#83BC45" d="M45.4,150c19.2,19.2,52.3,17.1,52.3,17.1s2.1-33.2-17.1-52.3C61.5,95.6,28.3,97.7,28.3,97.7
				S26.2,130.8,45.4,150z"/>
		</g>
	</g>
</g>
<g>
	<path fill="#010101" d="M15.5,171.7H20v8.9h0.1c1.1-1.8,4-3.2,7-3.2c5.5,0,11.1,4.1,11.1,11.2c0,7.1-5.5,11.2-11.1,11.2
		c-3,0-5.9-1.4-7-3.2H20v2.6h-4.6V171.7z M26.7,181.8c-3.8,0-6.6,2.9-6.6,6.9c0,4,2.8,6.9,6.6,6.9s6.6-2.9,6.6-6.9
		C33.3,184.8,30.5,181.8,26.7,181.8z"/>
	<path fill="#010101" d="M38.9,178.1h4.6V190c0,3.1,2.3,5.4,5.1,5.4c2.9,0,5.1-2.2,5.1-5.4v-11.9h4.6v12.3c0,6-4.7,9.5-9.7,9.5
		c-5.1,0-9.7-3.6-9.7-9.5V178.1z"/>
	<path fill="#010101" d="M68.8,182.4h-9.4v-4.3h17.1l-10.3,17h10.1v4.3H58.5L68.8,182.4z"/>
	<path fill="#010101" d="M86.6,182.4h-9.4v-4.3h17.1l-10.3,17H94v4.3H76.3L86.6,182.4z"/>
	<path fill="#010101" d="M97.2,193c1.6,1.8,4.3,3.1,6.7,3.1c2.6,0,4.2-1.5,4.2-2.7c0-1.4-1.1-2.2-2.8-2.5l-2.6-0.5
		c-6-1.1-7.7-3-7.7-6.1c0-3.6,3-7,8.4-7c2.9,0,5.5,0.9,8.4,2.9l-2.6,3.2c-2.2-1.9-4.2-2.4-5.7-2.4c-2,0-3.9,1-3.9,2.7
		c0,1.3,1,1.9,2.8,2.2l4.6,0.9c3.8,0.7,5.6,2.5,5.6,5.7c0,3.1-2.6,7.2-9,7.2c-3.6,0-6.7-1.3-9.6-3.7L97.2,193z"/>
	<path fill="#010101" d="M118,180.7L118,180.7c1.7-2,4.2-3.2,7.1-3.2c7,0,11,5.7,11,11.2c0,5.2-4.4,11.2-11.3,11.2
		c-3.2,0-5.6-1.4-6.8-3.2H118v9.9h-4.6v-28.6h4.6V180.7z M124.5,181.8c-3.6,0-6.7,3.1-6.7,6.9c0,3.8,3.1,6.9,6.7,6.9
		c3.7,0,6.8-3.1,6.8-6.9C131.3,184.9,128.2,181.8,124.5,181.8z"/>
	<path fill="#010101" d="M137.3,178.1h4.3v2.3h0.1c0.7-1.8,2.3-2.9,4.2-2.9c1,0,1.9,0.3,2.5,0.7l-1.6,4.5c-0.4-0.4-1.3-0.6-1.7-0.6
		c-1.7,0-3.2,1.3-3.2,3.2v14.1h-4.6V178.1z"/>
	<path fill="#010101" d="M157.9,177.5c7.4,0,11.7,5.6,11.7,11.2c0,5.6-4.3,11.2-11.7,11.2c-7.4,0-11.8-5.6-11.8-11.2
		C146.1,183.1,150.4,177.5,157.9,177.5z M157.9,195.6c4,0,6.9-3.1,6.9-6.9c0-3.8-2.9-6.9-6.9-6.9c-4,0-6.9,3.1-6.9,6.9
		C151,192.6,153.9,195.6,157.9,195.6z"/>
	<path fill="#010101" d="M170.3,178.1h4.6V190c0,3.1,2.3,5.4,5.1,5.4c2.9,0,5.1-2.2,5.1-5.4v-11.9h4.6v12.3c0,6-4.7,9.5-9.7,9.5
		c-5.1,0-9.7-3.6-9.7-9.5V178.1z"/>
	<path fill="#010101" d="M190.1,178.1h2.6v-5.6l4.6-1.3v6.9h3.7v4.3h-3.7v8.4c0,2.3,0.5,3.3,1.9,4.1l2.5,1.4l-2,3.6
		c-4.7-2.2-6.9-3.9-6.9-8.3v-9.2h-2.6V178.1z"/>
</g>
</svg>
